PathFileType	4	(X/Y/Z)	\\move.snu.ac.kr\motion\Animal\091204_091205_Bird\091205_bird\Project 2\Capture day 2\Session 1\pigeon_021.trc
DataRate	CameraRate	NumFrames	NumMarkers	Units	OrigDataRate	OrigDataStartFrame	OrigNumFrames
240.0	240.0	8	14	mm	240.0	174	2193
Frame#	Time	14MarkersBird:Head			14MarkersBird:C_back			14MarkersBird:Spine			14MarkersBird:L-shoulder			14MarkersBird:L-elbow			14MarkersBird:L-wrist			14MarkersBird:L-hand			14MarkersBird:R-shoulder			14MarkersBird:R-elbow			14MarkersBird:R-Wrist			14MarkersBird:R-hand			14MarkersBird:C_Tail			14MarkersBird:L-Tale			14MarkersBird:R-Tale			
		X1	Y1	Z1	X2	Y2	Z2	X3	Y3	Z3	X4	Y4	Z4	X5	Y5	Z5	X6	Y6	Z6	X7	Y7	Z7	X8	Y8	Z8	X9	Y9	Z9	X10	Y10	Z10	X11	Y11	Z11	X12	Y12	Z12	X13	Y13	Z13	X14	Y14	Z14	

1043	4.342	-600.37054	1027.91077	-2312.67456	-545.60315	1033.14246	-2309.56836	-488.55377	1028.96509	-2315.92163	-569.32593	1025.71899	-2292.47461	-534.92999	1033.82422	-2279.86377	-569.58118	1040.88696	-2257.91455	-566.31079	1023.22864	-2247.27319	-572.00525	1027.79541	-2331.25146	-539.52881	1050.81177	-2342.56885	-578.93665	1051.38940	-2354.95679	-578.59241	1028.69336	-2374.75903	-386.41638	955.49713	-2328.16528	-437.87061	970.77917	-2239.96436	-448.95953	1003.58850	-2418.95386	
1044	4.346	-616.04205	1022.63263	-2313.88403	-562.29712	1027.65479	-2310.86475	-504.12646	1023.08350	-2317.06079	-585.08746	1020.48706	-2294.14526	-550.10577	1032.23047	-2284.89478	-581.90173	1043.59192	-2259.72046	-573.76196	1030.38318	-2247.20190	-587.28333	1022.82697	-2331.80103	-553.94458	1049.11194	-2338.90161	-591.03955	1053.60437	-2355.32104	-585.01001	1037.74976	-2377.38940	-401.49228	950.70703	-2328.01001	-454.70270	968.27783	-2239.28711	-464.59845	1001.49524	-2420.06860	
1045	4.350	-631.66895	1017.34857	-2315.14941	-578.87585	1022.10223	-2312.13208	-520.25568	1017.04822	-2318.23633	-600.77057	1015.10571	-2295.65283	-565.87537	1029.92334	-2289.62256	-594.55859	1045.30396	-2261.78223	-582.14197	1037.55066	-2248.35449	-602.56647	1017.76630	-2332.49683	-569.12073	1046.54346	-2335.40869	-603.26160	1054.92969	-2355.55835	-591.99548	1047.19714	-2378.62549	-416.18542	946.32922	-2327.61108	-471.74127	965.89911	-2238.41919	-480.23026	999.33374	-2421.20337	
1046	4.354	-647.21899	1012.02466	-2316.42578	-595.11499	1016.52283	-2313.44678	-535.18964	1011.55591	-2319.31958	-616.35461	1009.62189	-2297.00146	-582.10358	1026.87817	-2293.70483	-607.57477	1045.71765	-2263.70313	-591.92798	1044.16650	-2250.19043	-617.82007	1012.59491	-2333.42554	-584.96008	1043.10339	-2332.61792	-615.67401	1055.13184	-2356.08374	-600.13501	1056.24292	-2378.92773	-430.49036	942.47089	-2327.09326	-488.84814	963.47083	-2237.53906	-495.94257	996.65741	-2422.41919	
1047	4.358	-662.70441	1006.72455	-2317.72314	-610.94263	1010.90857	-2314.78076	-550.38751	1005.55884	-2320.47363	-631.78241	1004.07239	-2298.20093	-598.62085	1023.11060	-2296.79639	-621.05670	1044.57776	-2265.05518	-603.41101	1049.36572	-2251.93823	-633.07471	1007.31738	-2334.61377	-601.38470	1038.86133	-2331.07837	-628.39020	1053.96265	-2357.32031	-609.86694	1063.92139	-2379.07861	-444.48273	939.08130	-2326.58350	-505.88269	960.81311	-2236.82275	-511.80649	993.06091	-2423.76270	
1048	4.363	-678.09045	1001.41425	-2319.01050	-626.29126	1005.28839	-2316.14429	-565.61737	999.43286	-2321.68408	-647.05322	998.50513	-2299.28784	-615.23035	1018.68494	-2298.67334	-634.95959	1041.63696	-2265.40234	-616.78082	1052.28650	-2252.88062	-648.33948	1001.94171	-2336.10327	-617.88623	1033.93970	-2330.99585	-641.57764	1051.32715	-2359.70020	-621.55597	1069.30273	-2379.91284	-458.25406	936.00323	-2326.17725	-522.75153	957.71405	-2236.39990	-527.84552	988.23340	-2425.23096	
1049	4.367	-693.40820	996.13477	-2320.29663	-641.13647	999.64850	-2317.54736	-580.66931	993.14777	-2322.97192	-662.17212	992.96765	-2300.29175	-631.82410	1013.64136	-2299.24316	-649.33966	1036.76672	-2264.55396	-632.01129	1052.18591	-2252.37573	-663.58368	996.45093	-2337.90088	-634.16498	1028.52502	-2332.53198	-655.39453	1047.13013	-2363.49487	-635.35889	1071.54285	-2382.30859	-471.98218	932.96338	-2325.98291	-539.35101	954.00470	-2236.35059	-543.99811	982.13849	-2426.81323	
1050	4.371	-708.65942	990.91284	-2321.57031	-655.52142	994.02429	-2318.93481	-595.59619	986.81335	-2324.29761	-677.17438	987.46136	-2301.24683	-648.32880	1008.02075	-2298.60449	-664.28961	1029.88721	-2262.54858	-648.87799	1048.52087	-2249.96191	-678.87708	990.83380	-2339.91968	-650.22705	1022.66974	-2335.66992	-669.90277	1041.15601	-2368.65063	-651.33136	1069.93506	-2386.81689	-485.87228	929.63837	-2326.07617	-555.60150	949.57544	-2236.69482	-560.12994	974.99139	-2428.47656	
